<?xml version="1.0" standalone="no"?><!DOCTYPE svg PUBLIC "-//W3C//DTD SVG 1.1//EN" "http://www.w3.org/Graphics/SVG/1.1/DTD/svg11.dtd"><svg t="1545963869305" class="icon" style="" viewBox="0 0 1024 1024" version="1.1" xmlns="http://www.w3.org/2000/svg" p-id="1892" xmlns:xlink="http://www.w3.org/1999/xlink" width="200" height="200"><defs><style type="text/css">@font-face { font-family: uc-nexus-iconfont; src: url("chrome-extension://pogijhnlcfmcppgimcaccdkmbedjkmhi/res/font_9qmmi8b8jsxxbt9.woff") format("woff"), url("chrome-extension://pogijhnlcfmcppgimcaccdkmbedjkmhi/res/font_9qmmi8b8jsxxbt9.ttf") format("truetype"); }
</style></defs><path d="M437.8 546.1h-350v316.2h294.8V601.2c-0.1-30.4 24.7-55.1 55.2-55.1z" fill="#F2F2F2" p-id="1893"></path><path d="M470.9 549.4l-1.7-3.3h-31.5c-30.5 0-55.3 24.7-55.3 55.2v261.1h88.4v-313z" fill="#F2F2F2" p-id="1894"></path><path d="M824.6 943.2H382.5v-342c0-30.5 24.7-55.2 55.3-55.2h331.6c30.5 0 55.3 24.7 55.3 55.2v342z" fill="#EB6836" p-id="1895"></path><path d="M470.9 549.4l-1.7-3.3h-31.5c-30.5 0-55.3 24.7-55.3 55.2v261.1h88.4v-313z" fill="#F2F2F2" p-id="1896"></path><path d="M87.7 546.1v316.2h231.6L131.5 546.1z" fill="#E5E5E5" p-id="1897"></path><path d="M911.2 653.6h-15.7v-27.5c34.5-14.9 57.1-48.6 57.1-86.9 0-40.7-26-76.8-64.7-89.8-8.8-3-18.2 3.8-18.2 13.1v73.9h-23.9v-73.9c0-9.3-9.4-16-18.2-13.1-36.5 12.2-61.7 45-64.4 82.8h-98.7c42.1-13.1 78.4-39.3 104.1-73.9 0.6-0.7 1.2-1.5 1.7-2.3 6.8-9.4 12.8-19.4 17.9-29.9 6.7 3.2 14.1 4.9 21.7 4.9 27.9 0 50.7-22.7 50.7-50.6 0-27.9-22.7-50.6-50.7-50.6h-1c0-0.6 0-1.2-0.1-1.9H832c7.6 0 13.8-6.2 13.8-13.8v-36.8c0-7.6-6.2-13.8-13.8-13.8h-26.2c-14-78.9-73.9-143.2-151.6-162.9V79.1c0-7.6-6.2-13.8-13.8-13.8h-73.7c-7.6 0-13.8 6.2-13.8 13.8V101c-77.6 19.7-137.6 84-151.6 162.9h-26.2c-7.6 0-13.8 6.2-13.8 13.8v36.8c0 7.6 6.2 13.8 13.8 13.8h23.2c0 0.6 0 1.2-0.1 1.9h-1c-27.9 0-50.7 22.7-50.7 50.6 0 27.9 22.7 50.6 50.7 50.6 7.6 0 15-1.7 21.7-4.9C424 437 430 447 436.8 456.4c0.5 0.8 1.1 1.6 1.7 2.3 25.7 34.6 62 60.8 104.1 73.9H332.2c11.6-21.8 19.9-43.2 19.9-59.8 0-56.3-45.9-102-102.2-102s-102.2 45.8-102.2 102c0 16.6 8.3 37.9 19.9 59.8H87.7c-7.6 0-13.8 6.2-13.8 13.8v316.2c0 7.6 6.2 13.8 13.8 13.8H132c7.6 0 13.8-6.2 13.8-13.8 0-7.6-6.2-13.8-13.8-13.8h-30.4V559.9h82.1c14 22.1 29.2 42.7 40.4 57h-88.4c-7.6 0-13.8 6.2-13.8 13.8v62.5c0 7.6 6.2 13.8 13.8 13.8H354v42.3H249.9c-7.6 0-13.8 6.2-13.8 13.8v51.5c0 7.6 6.2 13.8 13.8 13.8 7.6 0 13.8-6.2 13.8-13.8v-37.7h104.1c7.6 0 13.8-6.2 13.8-13.8v-69.9c0-7.6-6.2-13.8-13.8-13.8H149.5v-34.9H423c7.6 0 13.8-6.2 13.8-13.8 0-7.6-6.2-13.8-13.8-13.8H275.7c11.1-14.3 26.4-34.9 40.4-57h141v288.7H205.7c-7.6 0-13.8 6.2-13.8 13.8 0 7.6 6.2 13.8 13.8 13.8h165l-0.1 67.1c0 7.5 6.3 13.8 13.8 13.8h322.4c7.6 0 13.8-6.2 13.8-13.8s-6.2-13.8-13.8-13.8H398.2l0.1-53.3h412.5v53.3h-30.4c-7.6 0-13.8 6.2-13.8 13.8s6.2 13.8 13.8 13.8h44.2c7.6 0 13.8-6.2 13.8-13.8v-104h72.8c22.9 0 41.5-18.6 41.5-41.4V695c0-22.8-18.6-41.4-41.5-41.4z" fill="" p-id="1898"></path><path d="M552.9 148.3c-36.4 28-62.3 68.8-71.2 115.6h71.2V148.3z" fill="#F7D04A" p-id="1899"></path><path d="M552.9 148.3v-18.7c-62.3 18.5-110.3 70.5-123.5 134.3h52.2c9-46.9 35-87.6 71.3-115.6z" fill="#F3B41B" p-id="1900"></path><path d="M462.6 444.5V347c45.4 14.4 92.6 21.6 140.9 21.6 48.4 0 95.6-7.3 140.9-21.6v97.4c-32.5 42.2-83.6 69.4-140.9 69.4s-108.3-27.1-140.9-69.3z" fill="#FEE7BE" p-id="1901"></path><path d="M911.2 681.2h-57.1v130.6h57.1c7.6 0 13.8-6.2 13.8-13.8V695c0.1-7.6-6.1-13.8-13.8-13.8z" fill="#F7D04A" p-id="1902"></path><path d="M815.4 681.2c-7.6 0-13.8 6.2-13.8 13.8v2.8H832c7.6 0 13.8 6.2 13.8 13.8 0 7.6-6.2 13.8-13.8 13.8h-30.4v9.2H832c7.6 0 13.8 6.2 13.8 13.8 0 7.6-6.2 13.8-13.8 13.8h-30.4v9.2H832c7.6 0 13.8 6.2 13.8 13.8 0 7.6-6.2 13.8-13.8 13.8h-30.4c0.5 7.2 6.5 12.9 13.8 12.9h38.7V681.2h-38.7z" fill="#F3B41B" p-id="1903"></path><path d="M198.3 479.9c0 29.8 33 80.8 58.7 116 31.2-40.8 67.5-96.9 67.5-123.4 0-39.9-31.6-72.6-71.1-74.4-32.4 13.2-55.1 44.8-55.1 81.8z" fill="#62C9CC" p-id="1904"></path><path d="M175.3 472.5c0 28.6 42.2 91.5 74.6 132.5 2.3-2.9 4.7-6 7.1-9.2-25.7-35.2-58.7-86.3-58.7-116 0-37 22.8-68.6 55.1-81.7-1.2-0.1-2.3-0.1-3.5-0.1-41.2 0.1-74.6 33.5-74.6 74.5z" fill="#50A9A9" p-id="1905"></path><path d="M643.6 453.9c5.9-4.8 6.9-13.5 2.1-19.4-4.8-5.9-13.5-6.9-19.4-2.1-8.9 7.2-18.8 8-22.6 8-11.5 0-19.7-5.6-22.6-8-5.9-4.8-14.6-3.9-19.4 2.1-4.8 5.9-3.9 14.6 2.1 19.4 6.5 5.3 20.4 14.1 40 14.1 8.2-0.1 24.5-1.9 39.8-14.1zM679.1 398.1h9.2c7.6 0 13.8-6.2 13.8-13.8s-6.2-13.8-13.8-13.8h-9.2c-7.6 0-13.8 6.2-13.8 13.8s6.2 13.8 13.8 13.8zM528 370.5h-9.2c-7.6 0-13.8 6.2-13.8 13.8s6.2 13.8 13.8 13.8h9.2c7.6 0 13.8-6.2 13.8-13.8s-6.1-13.8-13.8-13.8z" fill="" p-id="1906"></path><path d="M484.8 848.5v-49.6H774c0.5 20.8 16.4 37.9 36.8 40.2v9.5h-326z" fill="#F2F2F2" p-id="1907"></path><path d="M809.1 620.5H632.2l47.9-60.7h85.1c5.6 25.6 21.4 47.5 43.9 60.7z" fill="#EB6836" p-id="1908"></path><path d="M774 695v2.8H484.8v-49.6H820v5.5h-4.6c-22.8-0.1-41.4 18.5-41.4 41.3zM562.2 559.9h82.7l-41.3 52.4z" fill="#F2F2F2" p-id="1909"></path><path d="M527.1 559.9l47.8 60.6h-90.1v-60.6zM484.8 725.4H774v46H484.8z" fill="#EB6836" p-id="1910"></path><path d="M818.2 485v65.3c0 7.6 6.2 13.8 13.8 13.8h51.6c7.6 0 13.8-6.2 13.8-13.8V485a66.88 66.88 0 0 1 27.6 54.2c0 29.6-19 55.4-47.4 64.1-5.8 1.8-9.7 7.1-9.7 13.2v37.1h-20.3v-37.1c0-6-3.9-11.4-9.7-13.2-28.3-8.7-47.4-34.5-47.4-64.1 0.1-21.8 10.6-41.8 27.7-54.2z" fill="#E5E5E5" p-id="1911"></path><path d="M470.9 546.1h-1.6l1.6 3.3z" fill="#F2F2F2" p-id="1912"></path><path d="M669.8 943.2L470.9 549.4v312.9h-88.4v80.9z" fill="" p-id="1913"></path><path d="M304.2 472.5c0-29.9-24.4-54.2-54.3-54.2s-54.3 24.3-54.3 54.2c0 29.9 24.4 54.2 54.3 54.2s54.3-24.3 54.3-54.2z" fill="" p-id="1914"></path><path d="M397.2 403.6c-12.7 0-23-10.3-23-23s10.3-23 23-23c0.7 0 1.3 0 2 0.1 1.5 14.8 4.7 29.2 9.2 42.9-3.3 2-7.2 3-11.2 3z" fill="#FEE7BE" p-id="1915"></path><path d="M709.6 328.2c-34.4 8.5-69.9 12.9-106 12.9-36.1 0-71.6-4.3-106-12.9h212z" fill="#F3B41B" p-id="1916"></path><path d="M389 291.4h429.2v9.2H389zM580.5 92.9h46.1V149c0 7.6 6.2 13.8 13.8 13.8 7.6 0 13.8-6.2 13.8-13.8v-19.3c62.3 18.5 110.3 70.5 123.5 134.3H654.2v-56.1c0-7.6-6.2-13.8-13.8-13.8-7.6 0-13.8 6.2-13.8 13.8V264h-46.1V92.9z" fill="#F7D04A" p-id="1917"></path><path d="M832.9 380.6c0 12.7-10.3 23-23 23-4 0-7.8-1-11.2-2.9 4.5-13.7 7.7-28.1 9.2-42.9 0.7-0.1 1.3-0.1 2-0.1 12.7-0.1 23 10.2 23 22.9z" fill="#FEE7BE" p-id="1918"></path><path d="M781.3 333.7c0 0.9 0.1 1.9 0.1 2.8 0 19.7-3.2 38.7-9.2 56.4v-55.6c3-1.2 6.1-2.4 9.1-3.6zM425.8 336.5c0-0.9 0.1-1.9 0.1-2.8 3 1.3 6.1 2.5 9.1 3.6v55.6c-6-17.8-9.2-36.7-9.2-56.4z" fill="#666666" p-id="1919"></path><path d="M223.2 472.5c0-14.7 12-26.7 26.7-26.7s26.7 12 26.7 26.7-12 26.7-26.7 26.7c-14.8 0-26.7-12-26.7-26.7z" fill="#F7D04A" p-id="1920"></path></svg>